# xmcd CD database file
#
# Track frame offsets:
#	150
#	22648
#	41697
#	63745
#
# Disc length: 1077 seconds
#
# Revision: 0
# Processed by: cddbd v1.5.1PL0 Copyright (c) Steve Scherf et al.
# Submitted via: CDex 1.51
#
DISCID=2a043304
DTITLE=BitCrash Records   - SUMMER COUNT★DOWN
DYEAR=1900
DGENRE=未分類 (日本)
TTITLE0=SUMMER COUNT★DOWN
TTITLE1=なびこのドキドキ☆ナビゲーション
TTITLE2=SUMMER COUNT★DOWN Favorite Sound Resync
TTITLE3=なびこのドキドキ☆ナビゲーション Summer Night Resync
EXTD=
EXTT0=
EXTT1=
EXTT2=
EXTT3=
PLAYORDER=
